<?xml version="1.0" encoding="UTF-8" standalone="no"?>
<!-- Generator: Adobe Illustrator 12.0.0, SVG Export Plug-In . SVG Version: 6.00 Build 51448)  -->
<svg xmlns:inkscape="http://www.inkscape.org/namespaces/inkscape" xmlns:rdf="http://www.w3.org/1999/02/22-rdf-syntax-ns#" xmlns="http://www.w3.org/2000/svg" xmlns:cc="http://web.resource.org/cc/" xmlns:dc="http://purl.org/dc/elements/1.1/" xmlns:sodipodi="http://inkscape.sourceforge.net/DTD/sodipodi-0.dtd" xmlns:svg="http://www.w3.org/2000/svg" xmlns:ns1="http://sozi.baierouge.fr" xmlns:xlink="http://www.w3.org/1999/xlink" id="Layer_1" style="enable-background:new 0 0 118.549 93.538" space="preserve" sodipodi:docname="lettera.svg" viewBox="0 0 118.549 93.538" sodipodi:version="0.32" version="1.1" inkscape:version="0.42" sodipodi:docbase="F:\openclip\svg da inviare">
  <defs id="defs81">
    <linearGradient id="XMLID_4_" y2="436.91" gradientUnits="userSpaceOnUse" y1="436.91" gradientTransform="matrix(170.14 387.81 387.81 -170.14 -1.2746e5 1.6994e5)" x2="-245.41" x1="-246.76">
      <stop id="stop8" style="stop-color:#FFFFFF" offset="0"/>
      <stop id="stop10" style="stop-color:#000000" offset="1"/>
    </linearGradient>
  </defs>
  <sodipodi:namedview id="base" bordercolor="#666666" inkscape:pageshadow="2" inkscape:window-width="787" pagecolor="#ffffff" inkscape:zoom="1.0312345" inkscape:window-x="22" borderopacity="1.0" inkscape:current-layer="Layer_1" inkscape:cx="59.274502" inkscape:cy="46.769001" inkscape:window-y="29" inkscape:window-height="510" inkscape:pageopacity="0.0"/>
  <path id="path5" style="fill:#fffff7" d="m110.87 34.015c1.7 7.575 3.4 15.15 5.11 22.725 0.6 2.68 3.52 9.524 0.51 11.679-1.69 1.206-4.71 1.306-6.63 1.725-6.22 1.358-12.433 2.734-18.644 4.116-24.231 5.398-48.28 11.504-72.212 18.096-2.381 0.656-5.052 0.52-5.569-2.569-0.961-5.742-2.017-11.473-3.14-17.185-2.82-14.332-6.233-28.553-9.436-42.803-1.716-7.627 12.966-7.867 17.963-8.989 16.796-3.773 33.641-7.372 50.335-11.572 10.751-2.706 21.467-5.563 32.113-8.646 4.59-1.33 4.53 5.531 4.93 8.132 1.3 8.471 2.8 16.927 4.67 25.291"/>
  <path id="path12" style="fill:url(#XMLID_4_)" d="m115.42 68.243c-11.9 4.201-25.331 5.534-37.649 8.366-13.604 3.127-27.131 6.599-40.625 10.171-4.705 1.242-9.403 2.503-14.098 3.781-1.846 0.503-4.713 1.938-6.71 1.574-3.169-0.581-3.047-7.123-3.457-9.396-1.352-7.506-2.811-14.993-4.482-22.435-1.524-6.779-3.049-13.559-4.573-20.337-0.649-2.883-5.124-13.957-0.276-15.046 6.225-1.399 12.45-2.796 18.671-4.195 26.541-5.962 53.068-11.896 79.199-19.491 4.8-1.392 5.02 13.202 5.41 15.471 1.21 7.073 2.64 14.098 4.21 21.098 1.37 6.085 2.74 12.17 4.11 18.254 0.54 2.39 3.98 10.873 0.27 12.185m-112.92-44.409c-5.655 1.998-0.055 15.988 0.772 19.669 1.586 7.056 3.228 14.104 4.737 21.178 1.487 6.966 2.815 13.963 4.049 20.979 0.56 3.189 0.871 9.042 5.857 7.674 8.254-2.266 16.522-4.488 24.804-6.652 19.908-5.211 39.922-9.819 60.013-14.262 3.59-0.793 17.12-1.483 15.72-7.695l-4.68-20.817c-3.01-13.396-5.79-26.816-7.68-40.428-0.87-6.299-9.235-2.312-12.717-1.348-10.116 2.808-20.269 5.48-30.467 7.968-11.057 2.698-22.184 5.11-33.288 7.608-8.837 1.987-18.564 3.104-27.12 6.126"/>
  <path id="path14" style="fill:#e6e6e6" d="m106.87 38.645c1.56 6.923 3.11 13.843 4.67 20.764 0.66 2.925 1.12 5.668-2.55 6.47-12.025 2.62-24.035 5.288-36.041 7.982-13.942 3.131-27.76 6.765-41.514 10.629-3.317 0.934-6.629 1.875-9.936 2.844-3.965 1.159-4.223-3.067-4.666-5.725-2.497-14.929-5.943-29.65-9.265-44.41-0.557-2.479-3.16-8.645 0.939-9.568 2.82-1.549 7.582-1.702 10.683-2.398 26.347-5.92 52.652-11.863 78.606-19.357 4.404-1.271 4.264 6.383 4.634 8.753 1.26 8.042 2.66 16.072 4.44 24.016"/>
  <path id="path16" style="fill:#cfcaba" d="m99.686 10.27c0.414 1.912-2.821 6.515-3.608 8.112-2.873 5.815-5.943 11.537-9.186 17.155-3.594 6.223-7.391 12.368-11.713 18.115-3.058 4.065-6.822 9.268-11.734 11.226-4.074 1.625-9.214-0.944-12.831-2.675-6.687-3.202-12.948-7.318-19.02-11.55-5.484-3.824-10.837-7.845-16.042-12.042-0.484-0.393-6.876-6.27-7.011-6.206 0.746-0.348 3.558 1.525 4.181 1.832 3.561 1.741 7.113 3.5 10.708 5.176 8.439 3.938 17.222 7.888 26.393 9.75 11.081 2.248 17.906-4.275 25.444-11.808 5.461-5.457 10.568-11.257 15.586-17.12 0.81-0.945 9.057-9.065 8.833-9.965"/>
  <path id="path30" style="fill:#ffffd9" d="m99.633 10.246c0.043-0.003 0.043-0.003 0 0m-0.013 0.001c-0.662 0.532-1.254 1.135-1.777 1.807 0.523-0.673 1.115-1.275 1.777-1.807m-91.074 22.154c-0.018 0.011-0.018 0.011 0 0"/>
  <path id="path32" style="fill:#d7cca4" d="m97.842 12.054c-0.165 0.191-0.331 0.38-0.497 0.571 0.166-0.191 0.332-0.38 0.497-0.571m1.778-1.807c0.018-0.002 0.018-0.002 0 0m-91.09 22.225c0.003 0.008 0.003 0.008 0 0m0.016-0.071c0.471 0.189 2.31 0.579 2.459 1.003-0.254-0.12-1.998-1.165-2.459-1.003"/>
  <path id="path34" style="fill:#857d63" d="m8.522 32.448c0.405 2.513 7.45 4.481 9.437 5.355 6.228 2.741 12.304 5.809 18.554 8.5 7.038 3.033 18.136 8.821 25.948 4.32 8.346-4.813 14.938-13.353 21.175-20.501 3.113-3.567 6.173-7.179 9.335-10.703 1.703-1.896 7.259-6.314 6.715-9.149 0.167 0.764-6.163 6.833-6.911 7.714-3.408 4.007-6.844 7.993-10.388 11.882-6.123 6.72-13.612 16.243-22.503 19.385-8.001 2.751-18.838-2.33-26.102-5.288-5.086-2.071-10.074-4.377-15.017-6.769-1.083-0.525-10.058-3.897-10.243-4.746"/>
  <path id="path36" style="fill:#ded3ab" d="m59.884 49.25m37.461-36.625c-10.426 12.055-21.03 27.837-35.284 35.628 14.275-7.803 24.822-23.579 35.284-35.628m-86.343 20.778c7.559 3.607 15.016 7.399 22.781 10.559 7.205 2.935 17.607 7.777 25.584 5.455-7.976 2.321-18.375-2.52-25.58-5.454-4.709-1.917-9.334-4.036-13.917-6.238-2.482-1.192-6.126-3.979-8.868-4.322"/>
  <path id="path38" style="fill:#d6cba3" d="m99.62 10.247c-0.926 0.328-1.64 1.649-2.274 2.378 0.068-0.059 2.273-2.376 2.274-2.378m-91.074 22.154c-0.183 0.065 2.592 1.039 2.456 1.001-0.251-0.118-1.996-1.163-2.456-1.001"/>
  <path id="path40" style="fill:#ffffe6" d="m17.688 85.925c-0.292 0.432-0.416 0.893-0.368 1.389 1.724 1.236 0.182-1.744 0.368-1.389"/>
  <path id="path42" style="fill:#fffff0" d="m38.869 55.521c-2.359 3.657-22.904 28.882-20.644 31.134 8.386-8.819 15.48-20.045 22.091-30.221-0.483-0.306-0.965-0.61-1.447-0.913"/>
  <path id="path44" style="fill:#fef3cb" d="m43.504 49.111c-2.176 1.518-3.24 4.241-4.635 6.409 2.466 1.576 3.105-1.598 4.246-3.7 0.515-0.949 1.655-2.244 0.389-2.709"/>
  <path id="path46" style="fill:#eadfb7" d="m43.861 48.914c-0.578 0.204-0.468 0.352 0.33 0.445 0.091-0.378-0.02-0.527-0.33-0.445"/>
  <path id="path48" style="fill:#fffad2" d="m17.183 83.741c0.066-0.101-1.96 2.769-1.56 3.059 1.094 0.785 1.672-2.357 1.56-3.059"/>
  <path id="path50" style="fill:#c7c7c7" d="m37.649 54.733c-3.833 5.726-7.89 11.287-11.925 16.869-2.216 3.063-8.956 9.658-8.317 13.54 2.71-3.229 19.963-30.59 20.242-30.409"/>
  <path id="path52" style="fill:#857d63" d="m42.002 48.549c-1.791 1.609-3.034 4.215-4.354 6.185 1.016 0.662 5.893-5.591 4.354-6.185"/>
  <path id="path54" style="fill:#857d63" d="m42.263 48.375c-0.892 0.314 0.746-0.264 0 0"/>
  <path id="path56" style="fill:#c7c7c7" d="m38.171 55.071c-6.894 8.749-13.459 17.944-18.866 27.695 6.813-8.814 13.529-17.882 19.564-27.246-0.232-0.15-0.466-0.299-0.698-0.449"/>
  <path id="path58" style="fill:#857d63" d="m41.614 50.931c-1.205 1.332-2.333 2.732-3.443 4.141 1.332 0.86 2.778-2.878 3.443-4.141"/>
  <path id="path60" style="fill:#ffffe6" d="m112.2 62.5c0.02 0.136 0.64 2.654 1.34 1.369-0.27-0.601-0.72-1.058-1.34-1.369"/>
  <path id="path62" style="fill:#fffff0" d="m80.683 45.721c-0.252 0.386-0.506 0.772-0.758 1.158 10.104 6.086 20.955 12.864 32.155 16.752 0.7-2.285-10.94-6.591-12.887-7.607-6.255-3.267-12.469-6.654-18.51-10.303"/>
  <path id="path64" style="fill:#fef3cb" d="m73.468 41.917c1.041-0.368 4.965 7.267 7.215 3.803-1.432-0.863-5.319-4.472-7.215-3.803"/>
  <path id="path66" style="fill:#ffffe1" d="m86.942 47.643c3.735 2.116 7.495 4.185 11.291 6.188-3.728-2.129-7.485-4.206-11.291-6.188"/>
  <path id="path68" style="fill:#fdf0c8" d="m81.464 44.504c-0.31 0.486 4.708 2.738 5.478 3.139-1.831-1.036-3.654-2.088-5.478-3.139"/>
  <path id="path70" style="fill:#857d63" d="m74.298 40.841c0.075-0.026 6.27 5.068 7.166 3.663-1.155-0.665-5.638-4.204-7.166-3.663"/>
  <path id="path72" style="fill:#fffad2" d="m111.89 60.976c0.16 0.728 1.77 3.155 2.52 1.796 0.23-0.426-2.63-1.855-2.52-1.796"/>
  <path id="path74" style="fill:#c7c7c7" d="m98.233 53.831c4.497 2.569 9.147 6.548 13.937 8.415-0.6-3.454-10.98-6.851-13.937-8.415"/>
  <path id="path76" style="fill:#c7c7c7" d="m81.273 44.805c-0.197 0.305-0.395 0.611-0.59 0.916 9.848 5.947 20.137 11.854 30.797 16.247-9.33-6.63-19.886-12.25-30.207-17.163"/>
  <path id="path78" style="fill:#857d63" d="m75.484 42.325c1.438 1.095 4.688 4.199 5.789 2.48-1.892-0.902-3.807-1.797-5.789-2.48"/>
  <metadata>
    <rdf:RDF>
      <cc:Work>
        <dc:format>image/svg+xml</dc:format>
        <dc:type rdf:resource="http://purl.org/dc/dcmitype/StillImage"/>
        <cc:license rdf:resource="http://creativecommons.org/licenses/publicdomain/"/>
        <dc:publisher>
          <cc:Agent rdf:about="http://openclipart.org/">
            <dc:title>Openclipart</dc:title>
          </cc:Agent>
        </dc:publisher>
        <dc:title>Architetto -- lettera</dc:title>
        <dc:date>2010-03-18T09:19:12</dc:date>
        <dc:description>Drawing by Francesco 'Architetto' Rollandin. From OCAL 0.18 release.</dc:description>
        <dc:source>https://openclipart.org/detail/31987/architetto----lettera-by-anonymous</dc:source>
        <dc:creator>
          <cc:Agent>
            <dc:title>Anonymous</dc:title>
          </cc:Agent>
        </dc:creator>
        <dc:subject>
          <rdf:Bag>
            <rdf:li>envelope</rdf:li>
            <rdf:li>letter</rdf:li>
            <rdf:li>mail</rdf:li>
          </rdf:Bag>
        </dc:subject>
      </cc:Work>
      <cc:License rdf:about="http://creativecommons.org/licenses/publicdomain/">
        <cc:permits rdf:resource="http://creativecommons.org/ns#Reproduction"/>
        <cc:permits rdf:resource="http://creativecommons.org/ns#Distribution"/>
        <cc:permits rdf:resource="http://creativecommons.org/ns#DerivativeWorks"/>
      </cc:License>
    </rdf:RDF>
  </metadata>
</svg>