<?xml version="1.0" encoding="UTF-8" standalone="no"?>
<!-- Created with Inkscape (http://www.inkscape.org/) -->
<svg xmlns:inkscape="http://www.inkscape.org/namespaces/inkscape" xmlns:rdf="http://www.w3.org/1999/02/22-rdf-syntax-ns#" xmlns="http://www.w3.org/2000/svg" xmlns:sodipodi="http://sodipodi.sourceforge.net/DTD/sodipodi-0.dtd" xmlns:cc="http://creativecommons.org/ns#" xmlns:xlink="http://www.w3.org/1999/xlink" xmlns:dc="http://purl.org/dc/elements/1.1/" xmlns:svg="http://www.w3.org/2000/svg" xmlns:ns1="http://sozi.baierouge.fr" id="svg2" sodipodi:docname="shopping_basket.svg" inkscape:export-filename="/home/gnokii/Desktop/icons/shop.png" viewBox="0 0 183.8 162.66" sodipodi:version="0.32" inkscape:export-xdpi="90" version="1.0" inkscape:output_extension="org.inkscape.output.svg.inkscape" inkscape:export-ydpi="90" inkscape:version="0.48.1 r9760">
  <defs id="defs5">
    <linearGradient id="linearGradient3546">
      <stop id="stop3548" style="stop-color:#216908" offset="0"/>
      <stop id="stop3550" style="stop-color:#2e3436" offset="1"/>
    </linearGradient>
    <linearGradient id="linearGradient3514">
      <stop id="stop3516" style="stop-color:#ffffff;stop-opacity:.0051020" offset="0"/>
      <stop id="stop3518" style="stop-color:#ffffff" offset="1"/>
    </linearGradient>
    <linearGradient id="linearGradient3474">
      <stop id="stop3476" style="stop-color:#ffffff;stop-opacity:0" offset="0"/>
      <stop id="stop3482" style="stop-color:#ffffff;stop-opacity:.49490" offset=".5"/>
      <stop id="stop3478" style="stop-color:#ffffff;stop-opacity:0" offset="1"/>
    </linearGradient>
    <linearGradient id="linearGradient3444">
      <stop id="stop3446" style="stop-color:#a7d939" offset="0"/>
      <stop id="stop3448" style="stop-color:#3e8f07" offset="1"/>
    </linearGradient>
    <linearGradient id="linearGradient3436" inkscape:collect="always">
      <stop id="stop3438" style="stop-color:#ffffff" offset="0"/>
      <stop id="stop3440" style="stop-color:#ffffff;stop-opacity:0" offset="1"/>
    </linearGradient>
    <filter id="filter3560" inkscape:collect="always" color-interpolation-filters="sRGB">
      <feGaussianBlur id="feGaussianBlur3562" stdDeviation="0.35123498" inkscape:collect="always"/>
    </filter>
    <filter id="filter3586" inkscape:collect="always" color-interpolation-filters="sRGB">
      <feGaussianBlur id="feGaussianBlur3588" stdDeviation="0.30700343" inkscape:collect="always"/>
    </filter>
    <filter id="filter3616" inkscape:collect="always" color-interpolation-filters="sRGB">
      <feGaussianBlur id="feGaussianBlur3618" stdDeviation="0.57201804" inkscape:collect="always"/>
    </filter>
    <filter id="filter3671" height="1.2666" width="1.2615" color-interpolation-filters="sRGB" y="-.13328" x="-.13075" inkscape:collect="always">
      <feGaussianBlur id="feGaussianBlur3673" stdDeviation="0.61612433" inkscape:collect="always"/>
    </filter>
    <filter id="filter3699" height="1.0591" width="1.2563" color-interpolation-filters="sRGB" y="-.029529" x="-.12817" inkscape:collect="always">
      <feGaussianBlur id="feGaussianBlur3701" stdDeviation="0.65036443" inkscape:collect="always"/>
    </filter>
    <filter id="filter3749" height="1.2163" width="1.0432" color-interpolation-filters="sRGB" y="-.10817" x="-.021593" inkscape:collect="always">
      <feGaussianBlur id="feGaussianBlur3751" stdDeviation="0.31818877" inkscape:collect="always"/>
    </filter>
    <filter id="filter3904" inkscape:collect="always" color-interpolation-filters="sRGB">
      <feGaussianBlur id="feGaussianBlur3906" stdDeviation="0.14591903" inkscape:collect="always"/>
    </filter>
    <filter id="filter3934" inkscape:collect="always" color-interpolation-filters="sRGB">
      <feGaussianBlur id="feGaussianBlur3936" stdDeviation="0.082152475" inkscape:collect="always"/>
    </filter>
    <filter id="filter3485" inkscape:collect="always" color-interpolation-filters="sRGB">
      <feGaussianBlur id="feGaussianBlur3487" stdDeviation="0.42745586" inkscape:collect="always"/>
    </filter>
    <filter id="filter5076" height="1.1687" width="1.2239" color-interpolation-filters="sRGB" y="-.084372" x="-.11196" inkscape:collect="always">
      <feGaussianBlur id="feGaussianBlur5078" stdDeviation="12.537448" inkscape:collect="always"/>
    </filter>
    <linearGradient id="linearGradient3295" y2="110.32" gradientUnits="userSpaceOnUse" x2="233.2" y1="103.64" x1="371.56" inkscape:collect="always">
      <stop id="stop3464" style="stop-color:#216908" offset="0"/>
      <stop id="stop3466" style="stop-color:#91d007" offset="1"/>
    </linearGradient>
    <linearGradient id="linearGradient3297" y2="197.63" gradientUnits="userSpaceOnUse" x2="365.86" y1="78.769" x1="365.86" inkscape:collect="always">
      <stop id="stop3428" style="stop-color:#217808" offset="0"/>
      <stop id="stop3430" style="stop-color:#216908" offset="1"/>
    </linearGradient>
    <linearGradient id="linearGradient3299" y2="193.79" gradientUnits="userSpaceOnUse" x2="415.77" y1="47.691" x1="413.22" inkscape:collect="always">
      <stop id="stop3420" style="stop-color:#91d007" offset="0"/>
      <stop id="stop3422" style="stop-color:#217808" offset="1"/>
    </linearGradient>
    <linearGradient id="linearGradient3301" y2="84.988" gradientUnits="userSpaceOnUse" x2="385.74" y1="86.024" x1="387.63" inkscape:collect="always">
      <stop id="stop3410" style="stop-color:#91d007" offset="0"/>
      <stop id="stop3412" style="stop-color:#91d04a" offset="1"/>
    </linearGradient>
    <radialGradient id="radialGradient3303" xlink:href="#linearGradient3514" gradientUnits="userSpaceOnUse" cy="164.79" cx="425.05" gradientTransform="matrix(2.7147 -.037117 .12248 8.9582 -706.71 -1308.2)" r="4.4872" inkscape:collect="always"/>
    <linearGradient id="linearGradient3305" y2="231.13" gradientUnits="userSpaceOnUse" x2="370.01" y1="106.75" x1="494.38" inkscape:collect="always">
      <stop id="stop3378" style="stop-color:#91d007" offset="0"/>
      <stop id="stop3380" style="stop-color:#217808" offset="1"/>
    </linearGradient>
    <linearGradient id="linearGradient3307" y2="218.84" gradientUnits="userSpaceOnUse" x2="285.06" gradientTransform="translate(0 -.51822)" y1="151.32" x1="381.41" inkscape:collect="always">
      <stop id="stop3386" style="stop-color:#91d007" offset="0"/>
      <stop id="stop3388" style="stop-color:#217808" offset="1"/>
    </linearGradient>
    <radialGradient id="radialGradient3309" xlink:href="#linearGradient3514" gradientUnits="userSpaceOnUse" cy="164.79" cx="425.05" gradientTransform="matrix(2.7147 -.037117 .12248 8.9582 -720.27 -1301.6)" r="4.4872" inkscape:collect="always"/>
    <radialGradient id="radialGradient3311" xlink:href="#linearGradient3514" gradientUnits="userSpaceOnUse" cy="164.79" cx="425.05" gradientTransform="matrix(2.7147 -.037117 .12248 8.9582 -734.56 -1295)" r="4.4872" inkscape:collect="always"/>
    <radialGradient id="radialGradient3313" xlink:href="#linearGradient3514" gradientUnits="userSpaceOnUse" cy="164.79" cx="425.05" gradientTransform="matrix(2.7147 -.037117 .12248 8.9582 -747.39 -1289.1)" r="4.4872" inkscape:collect="always"/>
    <linearGradient id="linearGradient3315" y2="118.22" xlink:href="#linearGradient3546" gradientUnits="userSpaceOnUse" x2="435.69" y1="144.97" x1="439.71" inkscape:collect="always"/>
    <linearGradient id="linearGradient3317" y2="145.7" gradientUnits="userSpaceOnUse" x2="388.79" y1="95.135" x1="499.45" inkscape:collect="always">
      <stop id="stop3402" style="stop-color:#91d007" offset="0"/>
      <stop id="stop3404" style="stop-color:#217808" offset="1"/>
    </linearGradient>
    <linearGradient id="linearGradient3319" y2="106.49" gradientUnits="userSpaceOnUse" x2="395.66" y1="106.49" x1="377.8" inkscape:collect="always">
      <stop id="stop3679" style="stop-color:#216908" offset="0"/>
      <stop id="stop3685" style="stop-color:#217808" offset=".67943"/>
      <stop id="stop3681" style="stop-color:#fdffff" offset="1"/>
    </linearGradient>
    <linearGradient id="linearGradient3321" y2="109.02" xlink:href="#linearGradient3546" gradientUnits="userSpaceOnUse" x2="387.84" gradientTransform="translate(-.38866 -.12955)" y1="109.02" x1="311.02" inkscape:collect="always"/>
    <linearGradient id="linearGradient3323" y2="123.34" gradientUnits="userSpaceOnUse" x2="270.51" y1="148.21" x1="383.48" inkscape:collect="always">
      <stop id="stop3394" style="stop-color:#91d007" offset="0"/>
      <stop id="stop3396" style="stop-color:#217808" offset="1"/>
    </linearGradient>
    <linearGradient id="linearGradient3325" y2="143.94" xlink:href="#linearGradient3444" gradientUnits="userSpaceOnUse" x2="397.04" y1="143.94" x1="384.69" inkscape:collect="always"/>
    <linearGradient id="linearGradient3327" y2="184.91" xlink:href="#linearGradient3444" gradientUnits="userSpaceOnUse" x2="401.61" y1="186.38" x1="380.36" inkscape:collect="always"/>
    <linearGradient id="linearGradient3329" y2="60.323" xlink:href="#linearGradient3436" gradientUnits="userSpaceOnUse" x2="389.89" y1="151.93" x1="392.09" inkscape:collect="always"/>
    <linearGradient id="linearGradient3331" y2="184.91" xlink:href="#linearGradient3474" gradientUnits="userSpaceOnUse" x2="395.12" y1="184.91" x1="384.68" inkscape:collect="always"/>
    <linearGradient id="linearGradient3333" y2="143.94" xlink:href="#linearGradient3474" gradientUnits="userSpaceOnUse" x2="397.04" y1="143.94" x1="384.69" inkscape:collect="always"/>
    <linearGradient id="linearGradient3335" y2="181.98" xlink:href="#linearGradient3436" gradientUnits="userSpaceOnUse" x2="323.2" y1="58.125" x1="414.81" inkscape:collect="always"/>
    <linearGradient id="linearGradient3337" y2="135.9" xlink:href="#linearGradient3546" gradientUnits="userSpaceOnUse" x2="334.25" y1="152.36" x1="330.11" inkscape:collect="always"/>
    <linearGradient id="linearGradient3339" y2="90.294" gradientUnits="userSpaceOnUse" x2="480.65" y1="90.294" x1="388.15" inkscape:collect="always">
      <stop id="stop3715" style="stop-color:#4d4d4d;stop-opacity:0" offset="0"/>
      <stop id="stop3721" style="stop-color:#4d4d4d;stop-opacity:.58163" offset=".5"/>
      <stop id="stop3717" style="stop-color:#4d4d4d;stop-opacity:0" offset="1"/>
    </linearGradient>
    <linearGradient id="linearGradient3341" y2="94.413" xlink:href="#linearGradient3546" gradientUnits="userSpaceOnUse" x2="394.71" y1="90.203" x1="409.42" inkscape:collect="always"/>
    <linearGradient id="linearGradient3343" y2="3.7765" gradientUnits="userSpaceOnUse" x2="37.672" y1="24.227" x1="26.362" inkscape:collect="always">
      <stop id="stop3862" style="stop-color:#bbbaff" offset="0"/>
      <stop id="stop3876" style="stop-color:#caedff" offset=".25"/>
      <stop id="stop3868" style="stop-color:#ffffff" offset=".45022"/>
      <stop id="stop3874" style="stop-color:#caedff" offset=".60697"/>
      <stop id="stop3870" style="stop-color:#dddcff" offset="0.708"/>
      <stop id="stop3864" style="stop-color:#bbbaff" offset="1"/>
    </linearGradient>
    <radialGradient id="radialGradient3345" gradientUnits="userSpaceOnUse" cy="-6.7697" cx="66.254" gradientTransform="matrix(1 0 0 1.4059 0 2.5507)" r="1.6842" inkscape:collect="always">
      <stop id="stop3290" style="stop-color:#ffffff" offset="0"/>
      <stop id="stop3292" style="stop-color:#d3d2ff" offset="1"/>
    </radialGradient>
  </defs>
  <sodipodi:namedview id="base" fit-margin-left="0" inkscape:zoom="1.3542358" borderopacity="1.0" inkscape:current-layer="svg2" inkscape:cx="-32.434641" inkscape:cy="9.881776" inkscape:window-maximized="0" showgrid="false" fit-margin-right="0" bordercolor="#666666" inkscape:window-x="377" guidetolerance="10.0" objecttolerance="10.0" inkscape:window-y="55" fit-margin-bottom="0" inkscape:window-width="1276" inkscape:pageopacity="0.0" inkscape:pageshadow="2" pagecolor="#ffffff" gridtolerance="10.0" inkscape:window-height="965" fit-margin-top="0">
    <inkscape:grid id="grid2461" enabled="true" visible="true" snapvisiblegridlinesonly="true" type="xygrid" empspacing="5"/>
  </sodipodi:namedview>
  <g id="g3215" transform="translate(.23276 -2.8325)">
    <g id="g3161" transform="matrix(3.6419 0 0 3.6419 .61493 -410.4)">
      <g id="g3411" style="opacity:.5;filter:url(#filter3485);fill:#000000" transform="translate(-.12955 107.16)">
        <g id="g3413" style="fill:#000000" transform="matrix(.21615 0 0 .21615 -59.472 -.26436)">
          <path id="path3415" sodipodi:nodetypes="ccsccccc" style="fill-rule:evenodd;fill:#000000" inkscape:connector-curvature="0" d="m387.42 80.002-32.219 12.767s-1.1737-8.9557-11.005-6.8127c-7.2523 1.5808-8.9057 12.631-10.097 13.731l-44.746 15.714 2.5286 17.435 95.933-42.565c-0.14242 0.11832 0.4925-10.664-0.39482-10.268z"/>
          <path id="path3417" sodipodi:nodetypes="ccccccccccccccccccccccccc" inkscape:connector-curvature="0" style="fill-rule:evenodd;fill:#000000" d="m388.01 89.898-93.229 41.387 9.1523 66.341 84.637-20.153-0.56031-87.574zm-18.635 10.591-0.1875 52.208-8.4062 3.8438-0.009-52.378 8.6023-3.6734zm-14.156 5.3425 0.34375 53.896-8.4375 3.875-0.0668-54.178 8.1605-3.5938zm-14.183 6.9559 0.93322 53.347-9.25 4.5 0.64769-54.119 7.6691-3.7273zm-13.652 6.0668 0.96019 53.905-8.4375 3.875-1.0227-54.119 8.5-3.6605z"/>
          <path id="path3419" inkscape:connector-curvature="0" sodipodi:nodetypes="ccccccccccccccc" style="fill-rule:evenodd;fill:#000000" d="m389.76 79.937c-0.73767 0.22159-1.4554 0.48184-2.1875 0.71875v75.031l5.875 58.625 85-42.5 4.2812-72.5h0.0312l0.78125-5.9375-1.5 0.25c-30.745-4.61-61.436-9.9961-92.281-13.688zm33.125 16.812 23.688 2.5c0.00001-0.00001-0.68022 1.2903-1.6562 2.25-1.519 1.36-11.927 1.5134-19.969-0.4375-1.5592-0.99881-2.0625-4.3125-2.0625-4.3125z"/>
          <path id="path3421" inkscape:connector-curvature="0" sodipodi:nodetypes="cccsccsccsccsccsccscccccccccccc" style="fill-rule:evenodd;fill:#000000" d="m389.44 75.594c-1.6115 0.04237-3.2188 0.5-3.2188 0.5l-29.312 11.719c0.00001-0.000002-4.4819-7.8665-14.281-4.7812-9.37 2.947-10.63 13.937-10.63 13.937l-50.969 17.469c-0.00001 0-1.9466 0.83445-1.0625 2.1875 0.90296 1.382 3.25 1.4062 3.25 1.4062l103.28 18.16c-0.00001 0 3.1345 0.89118 4.3438 0.78125 1.2092-0.10993 4.0938-1.625 4.0938-1.625l40.031-16.75c-0.00001 0 2.6819-10.327 9.5312-13.188 6.9726-2.9117 10.25 3.6562 10.25 3.6562l35-14.656c0.00001 0.000003 2.8688-1.4746 1.7188-2.8438-1.0984-1.3076-5.2812-1.625-5.2812-1.625l-92.75-14.156c-0.0142 0.06206-1.7362-0.09759-3.3125-0.1875-0.22519-0.01284-0.45728-0.0061-0.6875 0zm-0.21875 4.0312c30.95 3.704 61.743 9.1297 92.594 13.75-7.7527 3.3646-15.638 6.4436-23.406 9.7812-2.1611 2.688-3.4798-0.33191-5.4375-1.375-9.4381-4.2373-18.481 4.6711-21.094 13.156-12.831 6.7882-27.65 11.752-41.219 17.906-33.284-5.7599-66.527-11.753-99.812-17.5 13.031-4.5949 26.218-8.8604 39.25-13.5 6.3671-1.271 6.007-6.0937 7.7188-9.8125 2.902-7.4062 15.492-7.498 17.25 0.78125 11.496-4.122 22.454-9.6722 34.156-13.188z"/>
          <path id="path3423" sodipodi:nodetypes="ccccccccc" style="fill-rule:evenodd;fill:#000000" inkscape:connector-curvature="0" d="m467.36 115.38 0.72572 54.685-7.6816 3.8088-0.10787 0.64642 8.4118-3.7685 0.5625-0.21875-0.0312-0.5625-0.52697-55.323-1.3523 0.73286z"/>
          <path id="path3425" style="fill-rule:evenodd;fill:#000000" inkscape:connector-curvature="0" d="m486.76 106.02-92.312 43.219-0.375 68.906 86.469-45.438 6.2188-66.688zm-17.719 9.125-0.1875 54.406-8.4062 3.8438-0.375-53.844 8.9688-4.4062zm-14.156 6.625 0.34375 54.812-8.4375 3.875-0.25-55.094 8.3438-3.5938zm-14 6.4062 0.75 54.812-9.25 4.5 0.28125-55.219 8.2188-4.0938zm-13.469 6.25 0.59375 55.188-8.4375 3.875-0.65625-55.219 8.5-3.8438z"/>
          <path id="path3427" inkscape:connector-curvature="0" sodipodi:nodetypes="cccczzccc" style="fill-rule:evenodd;fill:#000000" d="m299.72 197.8 85.013 20.52 1.4657-66.691-38.972-6.681s-3.535 6.0149-5.9074 5.6c-2.3538-0.41161-20.469-3.3717-23.493-4.2232-3.1786-0.89518-2.8019-7.7136-2.8019-7.7136l-29.963-5.3041 14.657 64.493z"/>
          <path id="path3429" inkscape:connector-curvature="0" sodipodi:nodetypes="ccccccccc" style="fill-rule:evenodd;fill:#000000" d="m453.8 121.98 0.72572 54.685-7.6816 3.8088-0.10787 0.64642 8.4118-3.7685 0.5625-0.21875-0.0312-0.5625-0.52697-55.323-1.3523 0.73286z"/>
          <path id="path3431" sodipodi:nodetypes="ccccccccc" style="fill-rule:evenodd;fill:#000000" inkscape:connector-curvature="0" d="m439.51 128.57 0.72572 54.685-7.6816 3.8088-0.10787 0.64642 8.4118-3.7685 0.5625-0.21875-0.0312-0.5625-0.52697-55.323-1.3523 0.73286z"/>
          <path id="path3433" inkscape:connector-curvature="0" sodipodi:nodetypes="ccccccccc" style="fill-rule:evenodd;fill:#000000" d="m426.68 134.44 0.72572 54.685-7.6816 3.8088-0.10787 0.64642 8.4118-3.7685 0.5625-0.21875-0.0312-0.5625-0.52697-55.323-1.3523 0.73286z"/>
          <path id="path3435" inkscape:connector-curvature="0" sodipodi:nodetypes="ccccc" style="opacity:.5;filter:url(#filter3560);fill-rule:evenodd;fill:#000000" d="m486.06 106.41-92.707 43.075 0.55266 4.7115 91.974-46.525 0.18022-1.2616z"/>
          <path id="path3437" inkscape:connector-curvature="0" sodipodi:nodetypes="ccscccccc" style="fill-rule:evenodd;fill:#000000" d="m489.23 94.932-35 14.656s-3.2774-6.5679-10.25-3.6562c-6.8494 2.8602-9.5313 13.188-9.5312 13.188l-40.031 16.75s-0.0603 0.0301-0.0625 0.0312v13.906l96-45.438c1.9304-13.874 3.4343-13.613-1.125-9.4375z"/>
          <path id="path3439" inkscape:connector-curvature="0" sodipodi:nodetypes="ccccccc" style="opacity:.7;filter:url(#filter3699);fill-rule:evenodd;fill:#000000" d="m385.3 81.36-1.8138 50.267 6.996 1.2956 4.9231-2.0729 0.25911-50.267-6.2186-0.51822-4.1458 1.2955z"/>
          <path id="path3441" inkscape:connector-curvature="0" sodipodi:nodetypes="ccccc" style="opacity:.7;filter:url(#filter3616);fill-rule:evenodd;fill:#000000" d="m387.14 90.101-76.434 33.795-0.0768 3.7864 76.822-36.904-0.31187-0.67713z"/>
          <path id="path3443" style="fill-rule:evenodd;fill:#000000" inkscape:connector-curvature="0" d="m279.41 116.64 3.5312 16.531 103.66 19.188v-16.406c-0.49322-0.12437-1.125-0.28125-1.125-0.28125l-103.28-18.16s-1.7184-0.0157-2.7812-0.875z"/>
          <path id="path3445" inkscape:connector-curvature="0" sodipodi:nodetypes="cczcczc" style="fill-rule:evenodd;fill:#000000" d="m384.69 135.64 0.13234 16.586s4.7486 0.81125 6.1296 0.65678 6.0958-3.9187 6.0958-3.9187l-0.87527-13.98c-1.332 0.19643-3.9747 2.418-5.7593 1.9991l-5.7232-1.3433z"/>
          <path id="path3447" sodipodi:nodetypes="cczcczc" style="fill-rule:evenodd;fill:#000000" inkscape:connector-curvature="0" d="m385.31 152.14-0.62792 66.035s4.0639 1.2847 5.5907 1.1946c1.6589-0.0979 4.8418-1.5353 4.8418-1.5353l-0.41146-67.398c-1.3501 0.78349-2.1262 2.1434-4.2091 2.0172l-5.184-0.31397z"/>
          <path id="path3449" sodipodi:nodetypes="cccsccsccsccsccsccscccccccccccc" style="fill-rule:evenodd;fill:#000000" inkscape:connector-curvature="0" d="m389.44 75.594c-1.6115 0.04237-3.2188 0.5-3.2188 0.5l-29.312 11.719c0.00001-0.000002-4.4819-7.8665-14.281-4.7812-9.37 2.947-10.63 13.937-10.63 13.937l-50.969 17.469c-0.00001 0-1.9466 0.83445-1.0625 2.1875 0.90296 1.382 3.25 1.4062 3.25 1.4062l103.28 18.16c-0.00001 0 3.1345 0.89118 4.3438 0.78125 1.2092-0.10993 4.0938-1.625 4.0938-1.625l40.031-16.75c-0.00001 0 2.6819-10.327 9.5312-13.188 6.9726-2.9117 10.25 3.6562 10.25 3.6562l35-14.656c0.00001 0.000003 2.8688-1.4746 1.7188-2.8438-1.0984-1.3076-5.2812-1.625-5.2812-1.625l-92.75-14.156c-0.0142 0.06206-1.7362-0.09759-3.3125-0.1875-0.22519-0.01284-0.45728-0.0061-0.6875 0zm-0.21875 4.0312c30.95 3.704 61.743 9.1297 92.594 13.75-7.7527 3.3646-15.638 6.4436-23.406 9.7812-2.1611 2.688-3.4798-0.33191-5.4375-1.375-9.4381-4.2373-18.481 4.6711-21.094 13.156-12.831 6.7882-27.65 11.752-41.219 17.906-33.284-5.7599-66.527-11.753-99.812-17.5 13.031-4.5949 26.218-8.8604 39.25-13.5 6.3671-1.271 6.007-6.0937 7.7188-9.8125 2.902-7.4062 15.492-7.498 17.25 0.78125 11.496-4.122 22.454-9.6722 34.156-13.188z"/>
          <path id="path3451" inkscape:connector-curvature="0" sodipodi:nodetypes="cczcczc" style="fill-rule:evenodd;fill:#000000" d="m385.13 151.41-0.4447 66.768s4.0639 1.2847 5.5907 1.1946c1.6589-0.0979 4.8418-1.5353 4.8418-1.5353l-0.8695-67.948c-1.3501 0.78349-2.133 2.2275-4.2091 2.0172l-4.9092-0.49719z"/>
          <path id="path3453" sodipodi:nodetypes="cczcczc" style="fill-rule:evenodd;fill:#000000" inkscape:connector-curvature="0" d="m384.69 135.64 0.31556 15.487s4.0157 0.99447 5.3968 0.84c1.381-0.15447 6.6454-3.0026 6.6454-3.0026l-0.87527-13.98c-1.332 0.19643-3.9747 2.418-5.7593 1.9991l-5.7232-1.3433z"/>
          <path id="path3455" style="fill-rule:evenodd;fill:#000000" inkscape:connector-curvature="0" d="m280.15 117.38 3.5312 16.531 2.1875 0.40625 3.1875 14c45.059 11.391 80.931 33.86 96.688 58.375l1.1875-53.656 0.40625 0.0625v-16.406c-0.49321-0.12436-1.125-0.28125-1.125-0.28125l-103.29-18.16c0.00001 0.00001-1.7184-0.0157-2.7812-0.875zm35.625 22.469 32.125 5.9375c-0.17593 0.29644-3.533 5.9041-5.8438 5.5-2.3538-0.41161-20.476-3.3672-23.5-4.2188-2.805-0.78995-2.8115-5.9596-2.7812-7.2188z"/>
          <path id="path3457" style="opacity:.4;filter:url(#filter3671);fill:#000000" d="m385.35 151.49c0 7.6802 1.22 8.3937 5.6547 8.3937 4.4348 0 5.6547-3.4128 5.6547-11.093-0.16725-0.0717-1.0902 1.6963-5.838 2.9729-3.0404 0.0154-5.4607-0.18937-5.4715-0.27365z" sodipodi:nodetypes="csccc" transform="matrix(1 0 0 .80184 -.40438 29.948)" inkscape:connector-curvature="0"/>
          <path id="path3459" inkscape:connector-curvature="0" sodipodi:nodetypes="ccccc" style="opacity:.5;filter:url(#filter3586);fill-rule:evenodd;fill:#000000" d="m285.3 133.42 0.30857 1.1999 100.12 20.935 0.24089-3.9518-100.67-18.183z"/>
          <path id="path3461" inkscape:connector-curvature="0" sodipodi:nodetypes="cccczcc" style="opacity:.7;fill-rule:evenodd;fill:#000000" d="m387.67 89.645 35.207 6.8371 40.484 4.9689 17.284-7.912s-84.704-13.395-88.615-13.474c-3.6525-0.0731-3.8866 0.25911-3.8866 0.25911l-0.47376 9.3206z"/>
          <path id="path3463" inkscape:connector-curvature="0" sodipodi:nodetypes="csccssccccc" style="opacity:.5;filter:url(#filter3749);fill-rule:evenodd;fill:#000000" d="m392 89.455c-0.87047-0.06941-1.7386-0.12129-3.042 0.08464-1.31 0.206-2.08 1.085-2.08 1.085l0.1875 0.96875s1.3523 0.18493 2.6341-0.01759 2.5875-0.32627 3.1807-0.27897c1.3676 0.10905 3.6403 0.55567 3.6403 0.55567l25.723 4.6006-2.0797-1-23.05-4.829s-3.5659-1.0456-5.1256-1.1699z"/>
        </g>
        <path id="path3465" inkscape:connector-curvature="0" sodipodi:nodetypes="ccczcccczcc" style="filter:url(#filter3934);fill-rule:evenodd;fill:#000000;fill-opacity:.40357" d="m16.752 17.633 0.86352 1.0205 8.1642-9.8128c2.8062 0.34859 19.015 2.3378 19.155 3.1401 0.12638 0.72594-8.7922 11.932-8.7922 11.932l0.0785 0.94202 1.099-0.157 9.1847-12.325-0.31401-1.3345c-0.145-0.616-15.006-3.378-20.725-3.3759-1.919 0.8281-8.714 9.9699-8.714 9.9699z"/>
        <path id="path3467" sodipodi:rx="1.6842105" sodipodi:ry="1.6842105" style="opacity:.7;fill-opacity:.40357;fill:#000000" sodipodi:type="arc" d="m67.368-6.2834c0 0.93016-0.75405 1.6842-1.6842 1.6842-0.93016 0-1.6842-0.75405-1.6842-1.6842 0-0.93016 0.75405-1.6842 1.6842-1.6842 0.93016 0 1.6842 0.75405 1.6842 1.6842z" transform="matrix(.68990 0 0 .67067 -8.3968 28.542)" sodipodi:cy="-6.283401" sodipodi:cx="65.684212"/>
        <g id="g3469" style="fill:#000000" transform="translate(.38866 -.32389)">
          <path id="path3471" inkscape:connector-curvature="0" sodipodi:nodetypes="ccczcccczcc" style="fill-rule:evenodd;stroke-width:0;fill:#000000" d="m16.363 17.957 0.86352 1.0205 8.1642-9.8128c2.8062 0.34859 19.015 2.3378 19.155 3.1401 0.12638 0.72594-8.7922 11.932-8.7922 11.932l0.0785 0.94202 1.099-0.157 9.1847-12.325-0.31401-1.3345c-0.145-0.616-15.006-3.3781-20.725-3.376-1.918 0.8281-8.714 9.97-8.714 9.97z"/>
          <path id="path3473" inkscape:connector-curvature="0" sodipodi:nodetypes="cc" style="stroke-opacity:.65357;fill-rule:evenodd;filter:url(#filter3904);stroke:#ffffff;stroke-width:.5;fill:#000000" d="m16.972 18.138 7.967-9.4578"/>
          <path id="path3475" style="stroke-opacity:.675;fill-rule:evenodd;filter:url(#filter3904);stroke:#ffffff;stroke-width:.5;fill:#000000" d="m36.534 24.615 8.907-12.243" sodipodi:nodetypes="cc" inkscape:connector-curvature="0" transform="matrix(.87605 0 0 .87605 4.4975 3.0821)"/>
        </g>
        <path id="path3477" sodipodi:rx="1.6842105" sodipodi:ry="1.6842105" style="opacity:.7;fill-opacity:.40357;fill:#000000" sodipodi:type="arc" d="m67.368-6.2834c0 0.93016-0.75405 1.6842-1.6842 1.6842-0.93016 0-1.6842-0.75405-1.6842-1.6842 0-0.93016 0.75405-1.6842 1.6842-1.6842 0.93016 0 1.6842 0.75405 1.6842 1.6842z" transform="matrix(.68990 0 0 .67067 -30.062 24.649)" sodipodi:cy="-6.283401" sodipodi:cx="65.684212"/>
        <path id="path3479" sodipodi:rx="1.6842105" sodipodi:ry="1.6842105" style="fill:#000000" sodipodi:type="arc" d="m67.368-6.2834c0 0.93016-0.75405 1.6842-1.6842 1.6842-0.93016 0-1.6842-0.75405-1.6842-1.6842 0-0.93016 0.75405-1.6842 1.6842-1.6842 0.93016 0 1.6842 0.75405 1.6842 1.6842z" transform="matrix(.48242 0 0 .46897 -16.371 23.309)" sodipodi:cy="-6.283401" sodipodi:cx="65.684212"/>
      </g>
      <g id="g3296" transform="translate(0,106)">
        <g id="g3753" transform="matrix(.21615 0 0 .21615 -59.472 -.26436)">
          <path id="path2453" inkscape:connector-curvature="0" sodipodi:nodetypes="ccsccccc" style="fill-rule:evenodd;fill:url(#linearGradient3295)" d="m387.42 80.002-32.219 12.767s-1.1737-8.9557-11.005-6.8127c-7.2523 1.5808-8.9057 12.631-10.097 13.731l-44.746 15.714 2.5286 17.435 95.933-42.565c-0.14242 0.11832 0.4925-10.664-0.39482-10.268z"/>
          <path id="path2451" sodipodi:nodetypes="ccccccccccccccccccccccccc" style="fill-rule:evenodd;fill:url(#linearGradient3297)" inkscape:connector-curvature="0" d="m388.01 89.898-93.229 41.387 9.1523 66.341 84.637-20.153-0.56031-87.574zm-18.635 10.591-0.1875 52.208-8.4062 3.8438-0.009-52.378 8.6023-3.6734zm-14.156 5.3425 0.34375 53.896-8.4375 3.875-0.0668-54.178 8.1605-3.5938zm-14.183 6.9559 0.93322 53.347-9.25 4.5 0.64769-54.119 7.6691-3.7273zm-13.652 6.0668 0.96019 53.905-8.4375 3.875-1.0227-54.119 8.5-3.6605z"/>
          <path id="path2441" sodipodi:nodetypes="ccccccccccccccc" style="fill-rule:evenodd;fill:url(#linearGradient3299)" inkscape:connector-curvature="0" d="m389.76 79.937c-0.73767 0.22159-1.4554 0.48184-2.1875 0.71875v75.031l5.875 58.625 85-42.5 4.2812-72.5h0.0312l0.78125-5.9375-1.5 0.25c-30.745-4.61-61.436-9.9961-92.281-13.688zm33.125 16.812 23.688 2.5c0.00001-0.00001-0.68022 1.2903-1.6562 2.25-1.519 1.36-11.927 1.5134-19.969-0.4375-1.5592-0.99881-2.0625-4.3125-2.0625-4.3125z"/>
          <path id="path2386" sodipodi:nodetypes="cccsccsccsccsccsccscccccccccccc" style="fill-rule:evenodd;fill:url(#linearGradient3301)" inkscape:connector-curvature="0" d="m389.44 75.594c-1.6115 0.04237-3.2188 0.5-3.2188 0.5l-29.312 11.719c0.00001-0.000002-4.4819-7.8665-14.281-4.7812-9.37 2.947-10.63 13.937-10.63 13.937l-50.969 17.469c-0.00001 0-1.9466 0.83445-1.0625 2.1875 0.90296 1.382 3.25 1.4062 3.25 1.4062l103.28 18.16c-0.00001 0 3.1345 0.89118 4.3438 0.78125 1.2092-0.10993 4.0938-1.625 4.0938-1.625l40.031-16.75c-0.00001 0 2.6819-10.327 9.5312-13.188 6.9726-2.9117 10.25 3.6562 10.25 3.6562l35-14.656c0.00001 0.000003 2.8688-1.4746 1.7188-2.8438-1.0984-1.3076-5.2812-1.625-5.2812-1.625l-92.75-14.156c-0.0142 0.06206-1.7362-0.09759-3.3125-0.1875-0.22519-0.01284-0.45728-0.0061-0.6875 0zm-0.21875 4.0312c30.95 3.704 61.743 9.1297 92.594 13.75-7.7527 3.3646-15.638 6.4436-23.406 9.7812-2.1611 2.688-3.4798-0.33191-5.4375-1.375-9.4381-4.2373-18.481 4.6711-21.094 13.156-12.831 6.7882-27.65 11.752-41.219 17.906-33.284-5.7599-66.527-11.753-99.812-17.5 13.031-4.5949 26.218-8.8604 39.25-13.5 6.3671-1.271 6.007-6.0937 7.7188-9.8125 2.902-7.4062 15.492-7.498 17.25 0.78125 11.496-4.122 22.454-9.6722 34.156-13.188z"/>
          <path id="path3534" inkscape:connector-curvature="0" sodipodi:nodetypes="ccccccccc" style="fill-rule:evenodd;fill:url(#radialGradient3303)" d="m467.36 115.38 0.72572 54.685-7.6816 3.8088-0.10787 0.64642 8.4118-3.7685 0.5625-0.21875-0.0312-0.5625-0.52697-55.323-1.3523 0.73286z"/>
          <path id="path2397" style="fill-rule:evenodd;fill:url(#linearGradient3305)" inkscape:connector-curvature="0" d="m486.76 106.02-92.312 43.219-0.375 68.906 86.469-45.438 6.2188-66.688zm-17.719 9.125-0.1875 54.406-8.4062 3.8438-0.375-53.844 8.9688-4.4062zm-14.156 6.625 0.34375 54.812-8.4375 3.875-0.25-55.094 8.3438-3.5938zm-14 6.4062 0.75 54.812-9.25 4.5 0.28125-55.219 8.2188-4.0938zm-13.469 6.25 0.59375 55.188-8.4375 3.875-0.65625-55.219 8.5-3.8438z"/>
          <path id="path2409" sodipodi:nodetypes="cccczzccc" style="fill-rule:evenodd;fill:url(#linearGradient3307)" inkscape:connector-curvature="0" d="m299.72 197.8 85.013 20.52 1.4657-66.691-38.972-6.681s-3.535 6.0149-5.9074 5.6c-2.3538-0.41161-20.469-3.3717-23.493-4.2232-3.1786-0.89518-2.8019-7.7136-2.8019-7.7136l-29.963-5.3041 14.657 64.493z"/>
          <path id="path3530" sodipodi:nodetypes="ccccccccc" style="fill-rule:evenodd;fill:url(#radialGradient3309)" inkscape:connector-curvature="0" d="m453.8 121.98 0.72572 54.685-7.6816 3.8088-0.10787 0.64642 8.4118-3.7685 0.5625-0.21875-0.0312-0.5625-0.52697-55.323-1.3523 0.73286z"/>
          <path id="path3526" inkscape:connector-curvature="0" sodipodi:nodetypes="ccccccccc" style="fill-rule:evenodd;fill:url(#radialGradient3311)" d="m439.51 128.57 0.72572 54.685-7.6816 3.8088-0.10787 0.64642 8.4118-3.7685 0.5625-0.21875-0.0312-0.5625-0.52697-55.323-1.3523 0.73286z"/>
          <path id="path3506" sodipodi:nodetypes="ccccccccc" style="fill-rule:evenodd;fill:url(#radialGradient3313)" inkscape:connector-curvature="0" d="m426.68 134.44 0.72572 54.685-7.6816 3.8088-0.10787 0.64642 8.4118-3.7685 0.5625-0.21875-0.0312-0.5625-0.52697-55.323-1.3523 0.73286z"/>
          <path id="path3538" sodipodi:nodetypes="ccccc" style="opacity:.5;filter:url(#filter3560);fill-rule:evenodd;fill:url(#linearGradient3315)" inkscape:connector-curvature="0" d="m486.06 106.41-92.707 43.075 0.55266 4.7115 91.974-46.525 0.18022-1.2616z"/>
          <path id="path2418" sodipodi:nodetypes="ccscccccc" style="fill-rule:evenodd;fill:url(#linearGradient3317)" inkscape:connector-curvature="0" d="m489.23 94.932-35 14.656s-3.2774-6.5679-10.25-3.6562c-6.8494 2.8602-9.5313 13.188-9.5312 13.188l-40.031 16.75s-0.0603 0.0301-0.0625 0.0312v13.906l96-45.438c1.9304-13.874 3.4343-13.613-1.125-9.4375z"/>
          <path id="path3675" sodipodi:nodetypes="ccccccc" style="opacity:.7;filter:url(#filter3699);fill-rule:evenodd;fill:url(#linearGradient3319)" inkscape:connector-curvature="0" d="m385.3 81.36-1.8138 50.267 6.996 1.2956 4.9231-2.0729 0.25911-50.267-6.2186-0.51822-4.1458 1.2955z"/>
          <path id="path3590" sodipodi:nodetypes="ccccc" style="opacity:.7;filter:url(#filter3616);fill-rule:evenodd;fill:url(#linearGradient3321)" inkscape:connector-curvature="0" d="m387.14 90.101-76.434 33.795-0.0768 3.7864 76.822-36.904-0.31187-0.67713z"/>
          <path id="path2420" style="fill-rule:evenodd;fill:url(#linearGradient3323)" inkscape:connector-curvature="0" d="m279.41 116.64 3.5312 16.531 103.66 19.188v-16.406c-0.49322-0.12437-1.125-0.28125-1.125-0.28125l-103.28-18.16s-1.7184-0.0157-2.7812-0.875z"/>
          <path id="path2455" sodipodi:nodetypes="cczcczc" style="fill-rule:evenodd;fill:url(#linearGradient3325)" inkscape:connector-curvature="0" d="m384.69 135.64 0.13234 16.586s4.7486 0.81125 6.1296 0.65678 6.0958-3.9187 6.0958-3.9187l-0.87527-13.98c-1.332 0.19643-3.9747 2.418-5.7593 1.9991l-5.7232-1.3433z"/>
          <path id="path2459" inkscape:connector-curvature="0" sodipodi:nodetypes="cczcczc" style="fill-rule:evenodd;fill:url(#linearGradient3327)" d="m385.31 152.14-0.62792 66.035s4.0639 1.2847 5.5907 1.1946c1.6589-0.0979 4.8418-1.5353 4.8418-1.5353l-0.41146-67.398c-1.3501 0.78349-2.1262 2.1434-4.2091 2.0172l-5.184-0.31397z"/>
          <path id="path3434" inkscape:connector-curvature="0" sodipodi:nodetypes="cccsccsccsccsccsccscccccccccccc" style="fill-rule:evenodd;fill:url(#linearGradient3329)" d="m389.44 75.594c-1.6115 0.04237-3.2188 0.5-3.2188 0.5l-29.312 11.719c0.00001-0.000002-4.4819-7.8665-14.281-4.7812-9.37 2.947-10.63 13.937-10.63 13.937l-50.969 17.469c-0.00001 0-1.9466 0.83445-1.0625 2.1875 0.90296 1.382 3.25 1.4062 3.25 1.4062l103.28 18.16c-0.00001 0 3.1345 0.89118 4.3438 0.78125 1.2092-0.10993 4.0938-1.625 4.0938-1.625l40.031-16.75c-0.00001 0 2.6819-10.327 9.5312-13.188 6.9726-2.9117 10.25 3.6562 10.25 3.6562l35-14.656c0.00001 0.000003 2.8688-1.4746 1.7188-2.8438-1.0984-1.3076-5.2812-1.625-5.2812-1.625l-92.75-14.156c-0.0142 0.06206-1.7362-0.09759-3.3125-0.1875-0.22519-0.01284-0.45728-0.0061-0.6875 0zm-0.21875 4.0312c30.95 3.704 61.743 9.1297 92.594 13.75-7.7527 3.3646-15.638 6.4436-23.406 9.7812-2.1611 2.688-3.4798-0.33191-5.4375-1.375-9.4381-4.2373-18.481 4.6711-21.094 13.156-12.831 6.7882-27.65 11.752-41.219 17.906-33.284-5.7599-66.527-11.753-99.812-17.5 13.031-4.5949 26.218-8.8604 39.25-13.5 6.3671-1.271 6.007-6.0937 7.7188-9.8125 2.902-7.4062 15.492-7.498 17.25 0.78125 11.496-4.122 22.454-9.6722 34.156-13.188z"/>
          <path id="path3472" sodipodi:nodetypes="cczcczc" style="fill-rule:evenodd;fill:url(#linearGradient3331)" inkscape:connector-curvature="0" d="m385.13 151.41-0.4447 66.768s4.0639 1.2847 5.5907 1.1946c1.6589-0.0979 4.8418-1.5353 4.8418-1.5353l-0.8695-67.948c-1.3501 0.78349-2.133 2.2275-4.2091 2.0172l-4.9092-0.49719z"/>
          <path id="path3484" inkscape:connector-curvature="0" sodipodi:nodetypes="cczcczc" style="fill-rule:evenodd;fill:url(#linearGradient3333)" d="m384.69 135.64 0.31556 15.487s4.0157 0.99447 5.3968 0.84c1.381-0.15447 6.6454-3.0026 6.6454-3.0026l-0.87527-13.98c-1.332 0.19643-3.9747 2.418-5.7593 1.9991l-5.7232-1.3433z"/>
          <path id="path3488" style="fill-rule:evenodd;fill:url(#linearGradient3335)" inkscape:connector-curvature="0" d="m280.15 117.38 3.5312 16.531 2.1875 0.40625 3.1875 14c45.059 11.391 80.931 33.86 96.688 58.375l1.1875-53.656 0.40625 0.0625v-16.406c-0.49321-0.12436-1.125-0.28125-1.125-0.28125l-103.29-18.16c0.00001 0.00001-1.7184-0.0157-2.7812-0.875zm35.625 22.469 32.125 5.9375c-0.17593 0.29644-3.533 5.9041-5.8438 5.5-2.3538-0.41161-20.476-3.3672-23.5-4.2188-2.805-0.78995-2.8115-5.9596-2.7812-7.2188z"/>
          <path id="path3620" style="opacity:.4;filter:url(#filter3671);fill:#2e3436" d="m385.35 151.49c0 7.6802 1.22 8.3937 5.6547 8.3937 4.4348 0 5.6547-3.4128 5.6547-11.093-0.16725-0.0717-1.0902 1.6963-5.838 2.9729-3.0404 0.0154-5.4607-0.18937-5.4715-0.27365z" sodipodi:nodetypes="csccc" inkscape:connector-curvature="0" transform="matrix(1 0 0 .80184 -.40438 29.948)"/>
          <path id="path3564" sodipodi:nodetypes="ccccc" style="opacity:.5;filter:url(#filter3586);fill-rule:evenodd;fill:url(#linearGradient3337)" inkscape:connector-curvature="0" d="m285.3 133.42 0.30857 1.1999 100.12 20.935 0.24089-3.9518-100.67-18.183z"/>
          <path id="path3703" sodipodi:nodetypes="cccczcc" style="opacity:.7;fill-rule:evenodd;fill:url(#linearGradient3339)" inkscape:connector-curvature="0" d="m387.67 89.645 35.207 6.8371 40.484 4.9689 17.284-7.912s-84.704-13.395-88.615-13.474c-3.6525-0.0731-3.8866 0.25911-3.8866 0.25911l-0.47376 9.3206z"/>
          <path id="path3723" sodipodi:nodetypes="csccssccccc" style="opacity:.5;filter:url(#filter3749);fill-rule:evenodd;fill:url(#linearGradient3341)" inkscape:connector-curvature="0" d="m392 89.455c-0.87047-0.06941-1.7386-0.12129-3.042 0.08464-1.31 0.206-2.08 1.085-2.08 1.085l0.1875 0.96875s1.3523 0.18493 2.6341-0.01759 2.5875-0.32627 3.1807-0.27897c1.3676 0.10905 3.6403 0.55567 3.6403 0.55567l25.723 4.6006-2.0797-1-23.05-4.829s-3.5659-1.0456-5.1256-1.1699z"/>
        </g>
        <path id="path3921" sodipodi:nodetypes="ccczcccczcc" style="filter:url(#filter3934);fill-rule:evenodd;fill:#000000;fill-opacity:.40357" inkscape:connector-curvature="0" d="m16.752 17.633 0.86352 1.0205 8.1642-9.8128c2.8062 0.34859 19.015 2.3378 19.155 3.1401 0.12638 0.72594-8.7922 11.932-8.7922 11.932l0.0785 0.94202 1.099-0.157 9.1847-12.325-0.31401-1.3345c-0.145-0.616-15.006-3.378-20.725-3.3759-1.919 0.8281-8.714 9.9699-8.714 9.9699z"/>
        <path id="path2512" sodipodi:rx="1.6842105" sodipodi:ry="1.6842105" style="opacity:.7;fill-opacity:.40357;fill:#000000" sodipodi:type="arc" d="m67.368-6.2834c0 0.93016-0.75405 1.6842-1.6842 1.6842-0.93016 0-1.6842-0.75405-1.6842-1.6842 0-0.93016 0.75405-1.6842 1.6842-1.6842 0.93016 0 1.6842 0.75405 1.6842 1.6842z" transform="matrix(.68990 0 0 .67067 -8.3968 28.542)" sodipodi:cy="-6.283401" sodipodi:cx="65.684212"/>
        <g id="g3912" transform="translate(.38866 -.32389)">
          <path id="path3828" sodipodi:nodetypes="ccczcccczcc" style="fill-rule:evenodd;stroke-width:0;fill:url(#linearGradient3343)" inkscape:connector-curvature="0" d="m16.363 17.957 0.86352 1.0205 8.1642-9.8128c2.8062 0.34859 19.015 2.3378 19.155 3.1401 0.12638 0.72594-8.7922 11.932-8.7922 11.932l0.0785 0.94202 1.099-0.157 9.1847-12.325-0.31401-1.3345c-0.145-0.616-15.006-3.3781-20.725-3.376-1.918 0.8281-8.714 9.97-8.714 9.97z"/>
          <path id="path3890" sodipodi:nodetypes="cc" style="stroke-opacity:.65357;filter:url(#filter3904);stroke:#ffffff;stroke-width:.5;fill:none" inkscape:connector-curvature="0" d="m16.972 18.138 7.967-9.4578"/>
          <path id="path3908" style="stroke-opacity:.675;filter:url(#filter3904);stroke:#ffffff;stroke-width:.5;fill:none" d="m36.534 24.615 8.907-12.243" sodipodi:nodetypes="cc" transform="matrix(.87605 0 0 .87605 4.4975 3.0821)" inkscape:connector-curvature="0"/>
        </g>
        <path id="path2514" sodipodi:rx="1.6842105" sodipodi:ry="1.6842105" style="opacity:.7;fill-opacity:.40357;fill:#000000" sodipodi:type="arc" d="m67.368-6.2834c0 0.93016-0.75405 1.6842-1.6842 1.6842-0.93016 0-1.6842-0.75405-1.6842-1.6842 0-0.93016 0.75405-1.6842 1.6842-1.6842 0.93016 0 1.6842 0.75405 1.6842 1.6842z" transform="matrix(.68990 0 0 .67067 -30.062 24.649)" sodipodi:cy="-6.283401" sodipodi:cx="65.684212"/>
        <path id="path2516" sodipodi:rx="1.6842105" sodipodi:ry="1.6842105" style="fill:url(#radialGradient3345)" sodipodi:type="arc" d="m67.368-6.2834c0 0.93016-0.75405 1.6842-1.6842 1.6842-0.93016 0-1.6842-0.75405-1.6842-1.6842 0-0.93016 0.75405-1.6842 1.6842-1.6842 0.93016 0 1.6842 0.75405 1.6842 1.6842z" transform="matrix(.48242 0 0 .46897 -16.371 23.309)" sodipodi:cy="-6.283401" sodipodi:cx="65.684212"/>
      </g>
    </g>
    <g id="layer1" inkscape:label="Layer 1" transform="matrix(.27313 0 0 .27313 29.15 -3.6809)">
      <g id="g5080" inkscape:export-ydpi="90.262146" inkscape:export-xdpi="90.262146" inkscape:export-filename="C:\Documents and Settings\bogdan\Desktop\crHand.png" transform="translate(-1051.1 17.429)">
        <path id="path4649" style="filter:url(#filter5076);fill:#000000" sodipodi:nodetypes="ccccccccccccccccccccccccccccccccccccccccccc" inkscape:connector-curvature="0" d="m1404.6 215.25v15.284h-14.433v142.59h-14.497v-15.284h-42.33-15.724v51.966h10.59v19.519l15.401 0.0318v35.536h15.53v31.842h15.531v29.327h15.466v45.757h16.531 133.25v0.0637h16.564v-40.822h15.498v-45.853h14.4v-123.29h-14.4v-16.749h-15.498v-12.801h-16.532-14.465v-15.284h-32.03-15.531v-15.284h-25.766v-71.868h-14.497v-14.679h-33.063z"/>
        <g id="g4731" transform="translate(-6,-14)">
          <path id="path4403" d="m1403.2 215.57v15.633h-14.834v145.84h-14.9v-15.633h-43.507-16.162v53.153h10.885v19.965l15.83 0.0326v36.347h15.962v32.569h15.963v29.996h15.896v46.802h16.991 136.96v0.0651h17.024v-41.754h15.929v-46.9h14.801v-126.11h-14.801v-17.131h-15.929v-13.093h-16.991-14.867v-15.633h-32.921-15.963v-15.633h-26.482v-73.509h-14.901v-15.014h-33.982z" sodipodi:nodetypes="ccccccccccccccccccccccccccccccccccccccccccc" style="fill:#000000" inkscape:connector-curvature="0"/>
          <path id="path4323" style="fill:#ffffff" sodipodi:nodetypes="ccccccccccccccccccccccccccccccccccccccccccc" inkscape:connector-curvature="0" d="m1403.6 219.77v15.284h-14.433v142.59h-14.497v-15.284h-42.33-15.724v51.966h10.59v19.519l15.401 0.0318v35.536h15.53v31.842h15.531v29.327h15.466v45.757h16.531 133.25v0.0637h16.564v-40.822h15.498v-45.853h14.4v-123.29h-14.4v-16.749h-15.498v-12.801h-16.532-14.465v-15.284h-32.03-15.531v-15.284h-25.766v-71.868h-14.497v-14.679h-33.063z"/>
          <path id="rect4229" style="fill:#000000" inkscape:connector-curvature="0" d="m1405.5 224.42v15h-13.972v139.94h-14.035v-15h-40.979-15.223v51h10.253v19.156l14.91 0.0312v34.875h15.035v31.25h15.035v28.781h14.973v44.906h16.004 129v0.0625h16.035v-40.062h15.004v-45h13.941v-121h-13.941v-16.438h-15.004v-12.562h-16.004-14.004v-15h-31.008-15.035v-15h-24.944v-70.531h-14.035v-14.406h-32.008zm0.7502 15.344h30.258v144.66h15.035v-60h24.944v60.812h15.035v-44.875h30.008v59.156h15.004v-45.156h15.004v15h14.754v115h-14.754v45h-15.035v30.062h-129v-35h-15.004v-30.031h-15.004v-30.031h-15.004v-34.906h-15.004v-15l-10.972-0.0312v-34.062h40.01v16.906h15.004v42.156h14.723v-199.66z"/>
        </g>
      </g>
    </g>
  </g>
  <metadata>
    <rdf:RDF>
      <cc:Work>
        <dc:format>image/svg+xml</dc:format>
        <dc:type rdf:resource="http://purl.org/dc/dcmitype/StillImage"/>
        <cc:license rdf:resource="http://creativecommons.org/licenses/publicdomain/"/>
        <dc:publisher>
          <cc:Agent rdf:about="http://openclipart.org/">
            <dc:title>Openclipart</dc:title>
          </cc:Agent>
        </dc:publisher>
        <dc:title>eShop</dc:title>
        <dc:date>2011-09-15T01:29:57</dc:date>
        <dc:description>I use this to explain the similitude to buy online and buy on market</dc:description>
        <dc:source>https://openclipart.org/detail/160369/eshop-by-lbear</dc:source>
        <dc:creator>
          <cc:Agent>
            <dc:title>lbear</dc:title>
          </cc:Agent>
        </dc:creator>
        <dc:subject>
          <rdf:Bag>
            <rdf:li>basket</rdf:li>
            <rdf:li>buy</rdf:li>
            <rdf:li>buy online</rdf:li>
            <rdf:li>comercio electronico</rdf:li>
            <rdf:li>compra</rdf:li>
            <rdf:li>compra en linea</rdf:li>
            <rdf:li>ecomerce</rdf:li>
            <rdf:li>ecommerce</rdf:li>
            <rdf:li>order</rdf:li>
            <rdf:li>order online</rdf:li>
            <rdf:li>shop</rdf:li>
          </rdf:Bag>
        </dc:subject>
      </cc:Work>
      <cc:License rdf:about="http://creativecommons.org/licenses/publicdomain/">
        <cc:permits rdf:resource="http://creativecommons.org/ns#Reproduction"/>
        <cc:permits rdf:resource="http://creativecommons.org/ns#Distribution"/>
        <cc:permits rdf:resource="http://creativecommons.org/ns#DerivativeWorks"/>
      </cc:License>
    </rdf:RDF>
  </metadata>
</svg>